<?xml version="1.0" standalone="no"?><!DOCTYPE svg PUBLIC "-//W3C//DTD SVG 1.1//EN" "http://www.w3.org/Graphics/SVG/1.1/DTD/svg11.dtd"><svg t="1515670147311" class="icon" style="" viewBox="0 0 1024 1024" version="1.1" xmlns="http://www.w3.org/2000/svg" p-id="4893" data-spm-anchor-id="a313x.7781069.0.i2" xmlns:xlink="http://www.w3.org/1999/xlink" width="128" height="128"><defs><style type="text/css"></style></defs><path d="M771.671938 508.422214a12.428099 12.428099 0 0 0-12.428098 12.239794V621.404928a12.428099 12.428099 0 0 0 24.856197 0v-101.307833a12.428099 12.428099 0 0 0-12.428099-11.674881zM252.328062 634.39794A12.428099 12.428099 0 0 0 264.75616 621.404928v-101.307833a12.428099 12.428099 0 1 0-24.856197 0V621.404928a12.428099 12.428099 0 0 0 12.428099 12.993012z" fill="#d59b68" p-id="4894"></path><path d="M117.878632 0v587.698419a431.405664 431.405664 0 0 0 48.959176 179.642515 454.190511 454.190511 0 0 0 75.32181 106.768665l1.883045 2.07135a554.180213 554.180213 0 0 0 263.626333 147.442442h6.590658A550.414123 550.414123 0 0 0 776.944465 877.122471a12.239794 12.239794 0 0 0 4.519308-4.707613 460.027951 460.027951 0 0 0 123.904377-284.716439V0z m763.386539 587.886723a430.464141 430.464141 0 0 1-97.541743 244.795881v-73.25046a12.428099 12.428099 0 0 0-24.856197 0v101.872748A460.027951 460.027951 0 0 1 682.792203 924.763516l-75.321809-71.555719v-58.374402a22.596543 22.596543 0 0 1 6.778962-12.616403 25.79772 25.79772 0 0 1 34.836337 0 18.830452 18.830452 0 0 1 5.084222 18.830452 16.194189 16.194189 0 0 1-18.830452 12.051489 12.428099 12.428099 0 0 0-15.440971 8.285399 12.239794 12.239794 0 0 0 8.285399 15.252667A40.673777 40.673777 0 0 0 679.402722 809.709452a43.121736 43.121736 0 0 0-11.298272-43.31004 50.653917 50.653917 0 0 0-69.672674 0 46.887826 46.887826 0 0 0-14.122839 27.869069 11.863185 11.863185 0 0 0 0 1.506436v64.400147a12.239794 12.239794 0 0 0 0 2.447959 12.239794 12.239794 0 0 0 0 2.07135v2.259654l1.506436 1.694741 73.25046 70.990805a570.939316 570.939316 0 0 1-107.333578 48.582567V481.118058l94.152261 90.951085-60.822361 58.374402a12.239794 12.239794 0 0 0-3.76609 8.850313v88.503126a12.428099 12.428099 0 0 0 24.856197 0v-83.042295l56.491357-55.173225 95.470394 90.386171a22.031629 22.031629 0 0 1 4.519308 13.557926A24.291284 24.291284 0 0 1 737.588819 715.55719a20.901802 20.901802 0 0 1-17.51232-9.603531 18.830452 18.830452 0 0 1-1.694741-13.74623 11.486576 11.486576 0 0 1 5.83744-6.967267 12.239794 12.239794 0 0 0 5.460831-16.382494 12.428099 12.428099 0 0 0-16.759102-5.272526 36.154469 36.154469 0 0 0-18.830453 21.65502 42.368518 42.368518 0 0 0 3.577786 32.576682 45.569695 45.569695 0 0 0 39.355646 22.596543h1.129827a48.770872 48.770872 0 0 0 49.52409-47.829349 47.076131 47.076131 0 0 0-10.733358-28.810592l-0.941523-1.129827-94.152262-90.574476 96.788526-93.210739 0.941522-1.129827a46.887826 46.887826 0 0 0 10.356749-29.375506 48.770872 48.770872 0 0 0-49.52409-47.829349H739.28356a45.757999 45.757999 0 0 0-37.660905 22.973152 42.556822 42.556822 0 0 0-3.577786 32.764987 36.154469 36.154469 0 0 0 18.830453 21.466716 12.428099 12.428099 0 0 0 16.759102-5.272527 12.239794 12.239794 0 0 0-5.084222-16.570798 11.486576 11.486576 0 0 1-5.649135-6.967267 18.830452 18.830452 0 0 1 1.69474-13.746231 21.090107 21.090107 0 0 1 17.512321-9.791835 24.291284 24.291284 0 0 1 24.667893 23.161457 22.031629 22.031629 0 0 1-4.519309 13.369621L663.961751 555.121736l-110.534756-107.333579h-1.129827v-66.471496l2.636263-1.694741L598.055167 338.948143l1.129827 1.318131 50.277308 48.394263a22.031629 22.031629 0 0 1 4.519309 13.557926 24.291284 24.291284 0 0 1-24.667893 23.161456 20.901802 20.901802 0 0 1-17.51232-9.791835 18.830452 18.830452 0 0 1-1.694741-13.74623 11.486576 11.486576 0 0 1 5.649136-6.967268 12.239794 12.239794 0 0 0 5.460831-16.570798 12.428099 12.428099 0 0 0-16.759103-5.272527 36.154469 36.154469 0 0 0-18.830452 21.655021 42.556822 42.556822 0 0 0 3.012872 32.200073 45.569695 45.569695 0 0 0 39.355646 22.596543h1.129827a48.770872 48.770872 0 0 0 49.524089-47.829349 46.511217 46.511217 0 0 0-10.545053-29.375506l-0.941522-1.129827-50.842222-48.959176 38.979037-37.660905a46.511217 46.511217 0 0 0 10.356748-29.375505A48.770872 48.770872 0 0 0 615.755793 207.134976h-0.941523a45.569695 45.569695 0 0 0-39.355646 22.596543 42.556822 42.556822 0 0 0-3.577785 32.576683 36.154469 36.154469 0 0 0 18.830452 21.65502 12.428099 12.428099 0 0 0 16.759103-5.272527 12.239794 12.239794 0 0 0-5.084223-16.570798 11.486576 11.486576 0 0 1-5.649135-6.967267 18.830452 18.830452 0 0 1 1.69474-13.746231 20.901802 20.901802 0 0 1 17.512321-9.60353 24.291284 24.291284 0 0 1 24.667893 23.161456 22.219934 22.219934 0 0 1-4.519309 13.369621l-82.85399 79.652814V129.741817a186.044869 186.044869 0 0 1 148.383964 180.772343 12.428099 12.428099 0 1 0 24.856198 0 211.089371 211.089371 0 0 0-173.428467-206.193454V73.062155A239.33505 239.33505 0 0 1 758.114013 299.215888v80.406032a12.428099 12.428099 0 0 0 24.856197 0v-81.15925A263.626333 263.626333 0 0 0 553.803604 48.205958l-9.226921-1.129827h-1.883046a14.499448 14.499448 0 0 0-10.921662 4.895918 12.239794 12.239794 0 0 0-3.76609 8.850312v933.990438l-16.005885 4.519308-16.005885-4.707613V60.634057a12.239794 12.239794 0 0 0-3.76609-8.850313 14.499448 14.499448 0 0 0-10.733358-4.895918h-1.883045l-9.226922 1.129828A263.626333 263.626333 0 0 0 240.464877 298.650975v81.159249a12.428099 12.428099 0 0 0 24.856197 0v-80.594336a239.33505 239.33505 0 0 1 205.816844-225.965428v31.070246a211.089371 211.089371 0 0 0-172.863552 206.193454 12.428099 12.428099 0 1 0 24.856197 0 186.044869 186.044869 0 0 1 148.007355-180.772343v217.868334l-82.665686-79.652814a22.219934 22.219934 0 0 1-4.519308-13.369621 24.291284 24.291284 0 0 1 24.667892-23.161456 20.901802 20.901802 0 0 1 17.512321 9.60353 18.830452 18.830452 0 0 1 1.694741 13.746231 11.486576 11.486576 0 0 1-5.649136 6.967267 12.239794 12.239794 0 0 0-5.460831 16.570798 12.428099 12.428099 0 0 0 16.759103 5.272527 36.154469 36.154469 0 0 0 18.830452-21.655021 42.368518 42.368518 0 0 0-3.76609-32.576682A45.569695 45.569695 0 0 0 409.374035 207.134976h-0.941523a48.770872 48.770872 0 0 0-49.52409 47.829349 46.511217 46.511217 0 0 0 10.356749 29.375506l38.979036 37.660905-50.842221 48.959176-1.129827 1.129827a46.322913 46.322913 0 0 0-10.356749 29.375506 48.770872 48.770872 0 0 0 49.52409 47.829349h1.129827a45.569695 45.569695 0 0 0 39.355645-22.596543 42.368518 42.368518 0 0 0 2.07135-32.388378 36.154469 36.154469 0 0 0-18.830452-21.655021 12.428099 12.428099 0 0 0-16.759103 5.272527 12.239794 12.239794 0 0 0 5.084222 16.570798 11.486576 11.486576 0 0 1 5.649136 6.967268 18.830452 18.830452 0 0 1-1.694741 13.74623 20.901802 20.901802 0 0 1-17.51232 9.791835h0.753218a24.291284 24.291284 0 0 1-24.667893-23.161456 22.031629 22.031629 0 0 1 4.519309-13.369622l50.277308-48.394262 1.129827-1.318132 42.556822 41.050386 2.636263 1.694741v65.529974h-1.129827l-110.534755 107.333579-96.600221-92.080912a22.031629 22.031629 0 0 1-4.519308-13.557926 24.291284 24.291284 0 0 1 24.479588-23.161456 21.090107 21.090107 0 0 1 17.700625 9.60353 18.830452 18.830452 0 0 1 1.694741 13.746231 11.486576 11.486576 0 0 1-5.649136 6.967267 12.239794 12.239794 0 0 0-5.460831 16.570798 12.616403 12.616403 0 0 0 16.759102 5.272527 36.154469 36.154469 0 0 0 18.830453-21.655021 42.368518 42.368518 0 0 0-3.577786-32.764987 45.569695 45.569695 0 0 0-39.355646-22.596543h-0.941522a48.770872 48.770872 0 0 0-49.52409 47.82935 46.887826 46.887826 0 0 0 10.356749 29.375505l1.129827 1.129827 96.788525 93.21074-94.152262 90.574476-0.941522 1.129827a46.887826 46.887826 0 0 0-10.545054 29.375505 48.770872 48.770872 0 0 0 49.52409 47.829349H287.352703a45.569695 45.569695 0 0 0 39.167341-22.596542 42.368518 42.368518 0 0 0 3.577786-32.576683 36.154469 36.154469 0 0 0-18.830452-21.65502 12.428099 12.428099 0 0 0-16.759103 5.272526 12.239794 12.239794 0 0 0 5.084222 16.570798 11.486576 11.486576 0 0 1 5.649136 6.967268 18.830452 18.830452 0 0 1-1.694741 13.74623 20.901802 20.901802 0 0 1-17.51232 9.603531h0.376609a24.291284 24.291284 0 0 1-24.667893-23.161457 22.031629 22.031629 0 0 1 4.519309-13.369621l93.022434-90.386171 56.491357 55.36153v83.418904a12.428099 12.428099 0 1 0 24.856198 0V640.235381a12.239794 12.239794 0 0 0-3.766091-8.850313l-60.822361-58.374402 94.152262-91.13939V986.715704A579.413019 579.413019 0 0 1 362.674513 938.509746l75.321809-71.367414V863.941155a12.239794 12.239794 0 0 0 0-2.07135 12.239794 12.239794 0 0 0 0-2.447959v-65.529974a12.239794 12.239794 0 0 0 0-1.506436 46.887826 46.887826 0 0 0-14.122839-27.86907 50.653917 50.653917 0 0 0-69.672674 0 43.121736 43.121736 0 0 0-11.298271 43.310041 40.673777 40.673777 0 0 0 49.335785 28.245678 12.239794 12.239794 0 0 0 8.473703-15.252666 12.428099 12.428099 0 0 0-15.44097-8.285399 16.194189 16.194189 0 0 1-18.830453-12.05149 18.830452 18.830452 0 0 1 5.084222-18.830452 25.79772 25.79772 0 0 1 34.836337 0 22.596543 22.596543 0 0 1 6.778963 12.616403v58.374402l-74.191982 71.932328a453.437293 453.437293 0 0 1-73.815374-62.140492v-103.002575a12.428099 12.428099 0 0 0-24.856197 0v75.32181a435.360059 435.360059 0 0 1-50.465612-77.016551 414.269952 414.269952 0 0 1-46.887826-169.474071V24.856197h738.342037z" fill="#d59b68" p-id="4895"></path></svg>