<?xml version="1.0" standalone="no"?><!DOCTYPE svg PUBLIC "-//W3C//DTD SVG 1.1//EN" "http://www.w3.org/Graphics/SVG/1.1/DTD/svg11.dtd"><svg t="1513762977607" class="icon" style="" viewBox="0 0 1123 1024" version="1.1" xmlns="http://www.w3.org/2000/svg" p-id="4759" xmlns:xlink="http://www.w3.org/1999/xlink" width="52.640625" height="48"><defs><style type="text/css"></style></defs><path d="M214.709677 0h693.67742a214.709677 214.709677 0 0 1 214.709677 214.709677v580.046452A229.243871 229.243871 0 0 1 893.852903 1024H229.243871A229.243871 229.243871 0 0 1 0 794.756129V214.709677A214.709677 214.709677 0 0 1 214.709677 0z" fill="#005EA6" p-id="4760"></path><path d="M0 794.756129h1123.096774A229.243871 229.243871 0 0 1 893.852903 1024H229.243871A229.243871 229.243871 0 0 1 0 794.756129z" fill="#C41623" p-id="4761"></path><path d="M361.207742 608.289032V200.175484h-70.854194v390.276129c0 60.779355-28.572903 96.949677-69.20258 96.949677-46.245161 0-71.68-36.170323-71.68-97.775484V200.175484H78.781935v400.68129c0 137.083871 60.11871 191.917419 140.71742 191.91742a127.669677 127.669677 0 0 0 123.870968-82.580646v75.809033h63.091612v-119.907097h-50.374193a315.788387 315.788387 0 0 0 5.12-57.806452zM699.458065 616.547097c0-100.087742-33.032258-148.645161-97.775484-170.446452-7.432258-2.147097-28.738065-10.405161-44.923871-16.516129-52.851613-19.323871-72.010323-36.335484-72.010323-79.277419 0-33.032258 10.735484-54.833548 64.247742-54.833549 40.96 0 58.467097 16.516129 67.055484 49.548387a136.092903 136.092903 0 0 1 4.459355 28.903226H693.677419a305.383226 305.383226 0 0 0-7.432258-56.32c-16.516129-73.992258-54.503226-125.192258-135.432258-125.192258-94.967742 0-139.065806 66.064516-139.065806 165.161291s38.812903 149.636129 101.904516 171.107096c14.369032 5.12 37.987097 13.378065 47.566452 16.516129 52.356129 17.837419 66.064516 34.683871 66.064516 82.580646 0 38.482581-16.516129 62.926452-66.064516 62.926451-42.941935 0-64.247742-14.699355-73.166452-49.548387a176.392258 176.392258 0 0 1-4.459355-36.996129h-73.827097a433.548387 433.548387 0 0 0 4.624516 59.953548C427.272258 740.087742 462.451613 792.774194 560.392258 792.774194a124.20129 124.20129 0 0 0 123.045161-82.580646v74.652904h63.091613v-118.750968h-51.034838a305.052903 305.052903 0 0 0 3.963871-49.548387zM974.947097 577.073548L850.580645 200.175484h-82.250322v585.166451h67.385806v-396.387096l130.147097 396.387096h76.634839V200.175484h-67.550968v376.898064z" fill="#FFFFFF" p-id="4762"></path></svg>