<?xml version="1.0" standalone="no"?><!DOCTYPE svg PUBLIC "-//W3C//DTD SVG 1.1//EN" "http://www.w3.org/Graphics/SVG/1.1/DTD/svg11.dtd"><svg t="1513216083782" class="icon" style="" viewBox="0 0 1024 1024" version="1.1" xmlns="http://www.w3.org/2000/svg" p-id="3686" xmlns:xlink="http://www.w3.org/1999/xlink" width="200" height="200"><defs><style type="text/css"></style></defs><path d="M0 0h1024v1024H0z" fill="#F7F7F7" p-id="3687"></path><path d="M156.672 867.84c9.216 0 16.896-7.168 17.408-16.384V711.68c0-9.216-7.68-16.896-16.896-16.896-9.216 0-16.896 7.68-16.896 16.896v139.264c-0.512 9.216 7.168 16.896 16.384 16.896zM867.84 694.784c-9.216 0-16.896 7.68-16.896 16.896v139.264c0 9.216 7.68 16.896 16.896 16.896s16.896-7.68 16.896-16.896V711.68c0.512-9.216-7.168-16.896-16.896-16.896z" fill="#D3D3D3" p-id="3688"></path><path d="M218.624 623.616c-8.192 4.096-11.776 14.336-7.168 22.528 4.608 8.192 14.848 11.264 23.04 7.168 11.776-6.144 20.992-16.896 24.576-29.696 4.608-14.848 2.56-31.232-5.12-44.544-11.264-18.944-31.744-30.72-53.76-30.72h-1.536c-36.864-0.512-67.072 28.672-68.096 65.024v0.512c0 14.848 5.12 28.672 14.336 40.448l1.536 1.536L279.04 783.36l-128 123.904-1.536 1.536c-9.216 11.264-14.336 25.6-14.336 40.448 0.512 36.864 30.72 66.048 67.584 65.536h2.048c22.016 0 42.496-11.776 53.76-30.72 7.68-13.824 9.728-29.696 5.12-44.544-4.096-12.8-12.8-23.552-24.576-29.696-8.192-4.608-18.432-1.024-23.04 7.168-4.096 8.192-1.024 18.432 7.168 22.528 3.584 2.048 6.656 5.632 7.68 9.728 1.536 6.144 1.024 12.8-2.56 18.944-5.12 8.192-14.336 13.312-23.552 13.312h-1.536c-17.92 0.512-32.768-13.824-33.792-31.744 0-6.656 2.048-13.312 6.144-18.432l127.488-123.904 78.336 75.776v114.176c0 9.216 7.68 16.896 16.896 16.896 9.216 0 16.896-7.68 16.896-16.896V875.52c0-4.608-2.048-8.704-5.12-12.288L327.68 783.36l128.512-124.928V1024h34.304V82.432c0-4.608-2.048-9.216-5.12-12.288-3.584-4.096-9.216-6.656-14.848-6.656h-2.56l-12.288 2.048c-174.592 22.528-307.2 166.912-315.392 342.528v111.104c0 9.216 7.68 16.896 16.896 16.896 9.216 0 16.896-7.68 16.896-16.896V409.088c7.168-157.696 125.44-287.744 281.6-309.76v43.008c-136.192 25.088-235.52 143.36-236.544 282.112 0 9.216 7.68 16.896 16.896 16.896 9.216 0 16.896-7.68 16.896-16.896C253.952 304.64 337.92 201.216 455.68 176.64v298.496L343.04 366.592c-4.096-5.12-6.144-11.776-6.144-18.432 1.024-17.92 15.872-32.256 33.792-31.744h1.024c9.728 0 18.944 5.12 24.064 13.312 3.072 5.632 4.096 12.288 2.56 18.432-1.024 4.096-4.096 7.68-7.68 9.728-8.192 4.096-11.776 14.336-7.168 22.528 4.608 8.192 14.848 11.776 23.04 7.168 11.776-6.144 20.992-16.896 24.576-29.696 4.096-14.848 2.56-31.232-5.12-44.544-11.264-18.944-31.744-30.72-53.76-30.72h-1.536c-36.864-0.512-67.072 28.672-67.584 65.536 0 14.848 5.12 28.672 14.336 39.936l53.248 51.712-1.024 1.024-70.144 67.072-1.536 1.536c-9.216 11.264-14.336 25.6-14.336 40.448 0.512 36.864 30.72 66.048 67.584 65.536h2.048c22.016 0 42.496-11.776 53.76-30.72 7.68-13.824 9.728-29.696 5.12-44.544-4.096-12.8-12.8-23.552-24.576-29.696-8.192-4.608-18.432-1.024-23.04 7.168-4.096 8.192-1.024 18.432 7.168 22.528 3.584 2.048 6.656 5.632 7.68 9.728 1.536 6.144 1.024 12.8-2.048 18.944-5.12 8.192-14.336 13.312-24.064 13.312h-1.536c-17.92 0.512-32.768-13.824-33.792-31.744 0-6.656 2.048-13.312 6.144-18.432l68.608-66.56 1.536-1.536 58.368 56.32c1.024 1.024 2.048 1.536 3.584 2.048v89.6c-0.512 0.512-1.024 1.024-1.536 1.024l-151.04 146.944-132.096-127.488c-4.096-5.12-6.144-11.776-6.144-18.432 1.024-17.92 15.872-32.256 33.792-31.744h0.512c9.728 0 18.944 5.12 24.064 13.312 3.072 5.632 4.096 12.288 2.56 18.944-1.536 4.096-4.096 7.168-7.68 9.216zM867.328 536.576c9.216 0 16.896-7.68 16.896-16.896V408.576c-7.68-175.616-140.288-320-314.88-342.528l-12.8-1.536h-2.56c-5.632 0-11.264 2.56-14.848 6.656-3.072 3.072-5.12 7.68-5.12 12.288V1024h33.792v-365.568L696.32 783.36l-82.944 79.872c-3.072 3.072-5.12 7.68-5.12 12.288v121.344c0 9.216 7.68 16.896 16.896 16.896 9.216 0 16.896-7.68 16.896-16.896v-113.664l78.848-75.776 127.488 123.904c4.096 5.12 6.144 11.776 6.144 18.432-1.024 17.92-15.872 31.744-33.792 31.744h-1.024c-9.728 0-18.944-5.12-24.064-13.312-3.072-5.632-4.096-12.288-2.048-18.944 1.024-4.096 4.096-7.68 7.68-9.728 8.192-4.096 11.264-14.336 7.168-22.528-4.608-8.192-14.848-11.776-23.04-7.168-11.776 6.144-20.992 16.896-24.576 29.696-4.608 14.848-2.56 31.232 5.12 44.544 11.264 18.944 31.744 30.72 53.76 30.72h1.536c36.864 0.512 67.072-28.672 68.096-65.024 0-14.848-5.12-28.672-14.336-40.448l-1.536-1.536-128-123.904 132.608-128 1.536-1.536c9.216-11.264 14.336-25.6 14.336-40.448-0.512-36.864-30.72-66.048-67.584-65.536h-1.536c-22.016 0-42.496 11.776-53.76 30.72-7.68 13.824-9.728 29.696-5.12 44.544 4.096 12.8 12.8 23.552 24.576 29.696 8.192 4.096 18.432 1.024 23.04-7.168 4.096-8.192 1.024-18.432-7.168-22.528-3.584-2.048-6.656-5.12-7.68-9.216-1.536-6.144-1.024-13.312 2.56-18.944 5.12-8.192 14.336-13.312 24.064-13.312h1.024c17.92-0.512 33.28 13.824 33.792 31.744 0 6.656-2.048 13.312-6.144 18.432L721.92 759.296l-151.552-146.944c-0.512-0.512-1.024-1.024-1.536-1.024v-89.6c1.024-0.512 2.56-1.536 3.584-2.048l58.368-56.32 1.536 1.536 68.608 66.56c4.096 5.12 6.144 11.776 6.144 18.432-1.024 17.92-15.872 32.256-33.792 31.744h-1.024c-9.728 0-18.944-5.12-24.064-13.312-3.072-5.632-4.096-12.288-2.048-18.944 1.024-4.096 4.096-7.68 7.68-9.728 8.192-4.096 11.264-14.336 7.168-22.528-4.608-8.192-14.848-11.776-23.04-7.168-11.776 6.144-20.992 16.896-24.576 29.696-4.608 14.848-2.56 31.232 5.12 44.544 11.264 18.944 31.744 30.72 53.76 30.72h1.536c36.864 0.512 67.072-28.672 68.096-65.024 0-14.848-5.12-28.672-14.336-40.448l-1.536-1.536L655.36 440.832l-1.024-1.024 53.76-51.712c9.216-11.264 14.336-25.6 14.336-39.936-0.512-36.864-31.232-66.048-68.096-65.536h-1.536c-22.016 0-42.496 11.776-53.76 31.232-7.68 13.824-9.728 29.696-5.12 45.056 4.096 12.8 12.8 23.552 24.576 29.696 8.192 4.096 18.432 1.024 23.04-7.168 4.608-8.192 1.536-18.432-6.656-22.528-4.096-2.048-6.656-5.632-8.192-9.728-1.536-6.144-1.024-13.312 2.56-18.944 5.12-8.192 14.336-13.312 24.064-13.312h1.024c17.92-0.512 32.768 13.824 33.792 31.744 0 6.656-2.048 13.312-6.144 18.432L568.832 476.16V176.64c117.248 24.576 201.728 127.488 202.752 247.808 0 9.216 7.68 16.896 16.896 16.896s16.896-7.68 16.896-16.896c-1.024-138.752-100.352-257.024-236.544-282.112v-43.008c156.16 22.016 274.432 152.064 281.6 309.76v110.08c0 9.728 7.68 17.408 16.896 17.408z" fill="#D3D3D3" p-id="3689"></path></svg>