<?xml version="1.0" standalone="no"?><!DOCTYPE svg PUBLIC "-//W3C//DTD SVG 1.1//EN" "http://www.w3.org/Graphics/SVG/1.1/DTD/svg11.dtd"><svg t="1512716841837" class="icon" style="" viewBox="0 0 1024 1024" version="1.1" xmlns="http://www.w3.org/2000/svg" p-id="4311" xmlns:xlink="http://www.w3.org/1999/xlink" width="64" height="64"><defs><style type="text/css"></style></defs><path d="M806.586816 1022.814362H106.527208a82.651666 82.651666 0 0 1-82.651665-82.651666V85.131216A85.544474 85.544474 0 0 1 109.006758 0h726.094883a85.544474 85.544474 0 0 1 85.131215 85.131216v181.833664a51.657291 51.657291 0 0 1-51.657291 52.070549c-28.514825 0-26.035275-28.101566-26.035275-57.856166V109.513457a41.325833 41.325833 0 0 0-41.325832-41.325833H133.802258a41.325833 41.325833 0 0 0-41.325833 41.325833v804.200706a41.325833 41.325833 0 0 0 41.325833 41.325833h670.718266a38.019766 38.019766 0 0 0 38.019766-38.019766v-136.788507c0-29.7546-2.47955-64.881557 26.035275-64.881557a51.657291 51.657291 0 0 1 51.657291 52.070549V909.168322a105.380874 105.380874 0 0 1-113.64604 114.472557zM914.44724 388.462828l-198.363998 203.323098a41.325833 41.325833 0 0 0-11.157975 21.902691l-12.811008 59.509199a14.464041 14.464041 0 0 0 18.596625 16.530333l60.335716-16.117074a41.325833 41.325833 0 0 0 17.356849-12.39775l198.777256-203.323098a41.325833 41.325833 0 0 0 0-57.856165L974.369697 388.462828a41.325833 41.325833 0 0 0-59.922457 0zM265.218406 822.797331a25.622016 25.622016 0 0 1-12.811008-3.306067 26.035275 26.035275 0 0 1-9.9182-34.300441C354.482205 587.240084 395.808038 593.852217 410.272079 596.331767s28.928083 9.091683 35.126958 41.325833a525.664593 525.664593 0 0 1 8.265167 74.386499v14.8773l18.596625-20.662916c38.433025-41.325833 61.988749-68.187624 91.33009-61.575491s33.060666 33.473925 35.540216 41.325833a105.794132 105.794132 0 0 1 2.892809 41.325832l13.224266-5.785616a26.035275 26.035275 0 0 1 21.489433 47.111449c-41.325833 19.009883-63.228524 28.101566-82.651666 13.637525a41.325833 41.325833 0 0 1-8.265166-44.218641 73.559982 73.559982 0 0 0 0-38.019766 519.465718 519.465718 0 0 0-38.433025 41.325832l-20.662916 22.729209c-11.157975 11.984492-33.887183 36.779991-59.509199 27.688307s-26.861791-37.606508-29.341342-76.45279A533.516501 533.516501 0 0 0 395.808038 654.187933a752.956674 752.956674 0 0 0-108.68694 155.385132 25.622016 25.622016 0 0 1-22.729208 13.224266zM196.204265 191.751864h517.399427V243.822414H196.204265z m0 103.727841h517.399427v52.070549H196.204265z m0 103.72784h413.258328v51.657291h-413.258328z m0 0" p-id="4312" fill="#dd6569"></path></svg>