<?xml version="1.0" standalone="no"?><!DOCTYPE svg PUBLIC "-//W3C//DTD SVG 1.1//EN" "http://www.w3.org/Graphics/SVG/1.1/DTD/svg11.dtd"><svg class="icon" width="200px" height="200.00px" viewBox="0 0 1024 1024" version="1.1" xmlns="http://www.w3.org/2000/svg"><path d="M542.592 896l0-77.12c66.496-2.56 120.704-21.44 162.56-56.768C747.072 726.72 768 682.688 768 629.824c0-24-4.992-46.336-15.04-66.944-10.048-20.608-24.384-38.4-43.008-53.376-18.688-14.976-42.752-27.712-72.32-38.144C622.144 465.92 590.464 458.432 542.592 448.832L542.592 228.864C573.568 233.984 597.952 244.48 615.744 260.416c17.792 15.936 29.504 38.912 35.136 68.864l98.176-11.84c-8.448-48.32-33.408-86.336-74.944-113.984-32.384-21.76-76.16-34.752-131.456-38.976L542.656 128 486.656 128l0 36.416C423.68 169.536 376.192 183.36 344.128 205.952c-47.872 33.664-71.808 77.568-71.808 131.84 0 30.528 8.192 57.792 24.576 81.792 16.384 24 39.68 42.816 69.952 56.384 40.832 18.368 80.768 30.528 119.808 36.48l0 242.88c-37.312-3.136-69.312-18.24-96.064-45.376-18.624-19.2-31.68-49.28-39.04-90.304L256 634.048c3.52 39.552 16.128 73.024 37.76 100.416 21.632 27.392 47.296 47.232 77.056 59.584 29.76 12.288 68.352 20.8 115.84 25.664L486.656 896 542.592 896zM486.656 439.104C443.392 428.672 412.672 414.656 394.56 397.12 376.448 379.648 367.36 357.888 367.36 331.84c0-26.304 10.624-49.024 31.936-68.224 21.312-19.2 50.432-31.104 87.36-35.584L486.656 439.104zM542.592 523.008c51.008 13.312 85.056 28.352 102.144 45.12 17.088 16.832 25.6 39.04 25.6 66.752 0 32.512-12.032 59.776-36.16 81.792-24.128 22.016-54.656 34.88-91.584 38.592L542.592 523.008z" fill="#999999" /></svg>