<?xml version="1.0" standalone="no"?><!DOCTYPE svg PUBLIC "-//W3C//DTD SVG 1.1//EN" "http://www.w3.org/Graphics/SVG/1.1/DTD/svg11.dtd"><svg class="icon" width="200px" height="200.00px" viewBox="0 0 1024 1024" version="1.1" xmlns="http://www.w3.org/2000/svg"><path d="M880.64 896h-122.88c7.68-10.24 10.24-20.48 10.24-33.28V691.2c0-17.92-2.56-35.84-7.68-51.2h35.84c69.12 0 125.44 58.88 125.44 130.56v81.92c0 23.04-17.92 43.52-40.96 43.52z" fill="#999999" /><path d="M409.6 307.2m-179.2 0a179.2 179.2 0 1 0 358.4 0 179.2 179.2 0 1 0-358.4 0Z" fill="#999999" /><path d="M686.08 540.16c-28.16-20.48-46.08-53.76-46.08-92.16 0-64 51.2-115.2 115.2-115.2s115.2 51.2 115.2 115.2-51.2 115.2-115.2 115.2c-23.04 0-43.52-7.68-61.44-17.92-2.56-2.56-5.12-2.56-7.68-5.12z" fill="#999999" /><path d="M256 563.2h307.2c84.48 0 153.6 69.12 153.6 153.6v128c0 28.16-23.04 51.2-51.2 51.2H153.6c-28.16 0-51.2-23.04-51.2-51.2v-128c0-84.48 69.12-153.6 153.6-153.6z" fill="#999999" /></svg>