<?xml version="1.0" standalone="no"?><!DOCTYPE svg PUBLIC "-//W3C//DTD SVG 1.1//EN" "http://www.w3.org/Graphics/SVG/1.1/DTD/svg11.dtd"><svg class="icon" width="200px" height="174.74px" viewBox="0 0 1172 1024" version="1.1" xmlns="http://www.w3.org/2000/svg"><path d="M232.916838-2.1e-05C97.124895-2.1e-05 0.128037 115.104869 0.128037 290.441826 0.128037 460.401246 95.734783 568.811651 224.612751 568.811651 352.100607 568.811651 453.249509 471.101446 453.249509 275.699327 453.249509 132.499553 390.895692-2.1e-05 232.916838-2.1e-05ZM227.374683 88.345222C302.202921 88.345222 332.693919 160.612729 332.693919 281.076864 332.693919 414.893386 296.660766 480.484699 227.374683 480.484699 163.630755 480.484699 119.293515 416.246915 119.293515 283.72905 119.293515 164.618445 159.478711 88.345222 227.374683 88.345222ZM950.744804 448.365807C814.934569 448.365807 717.937711 564.787644 717.937711 740.10631 717.937711 910.084022 813.544458 1018.494427 942.422426 1018.494427 1069.910282 1018.494427 1171.077475 920.802513 1171.077475 724.046864 1171.077475 582.20062 1111.48559 448.365807 950.744804 448.365807ZM946.574469 538.027998C1020.030887 538.027998 1051.893705 608.960266 1051.893705 732.076587 1051.893705 863.259214 1015.860552 928.813945 945.202649 928.813945 882.830541 928.813945 838.493301 867.26493 838.493301 738.771072 838.493301 596.906536 884.220653 538.027998 946.574469 538.027998ZM321.609609 1023.853672 936.880271 2.688747 839.883412 2.688747 227.374683 1023.853672 321.609609 1023.853672Z" fill="#999999" /></svg>